<svg width="24" height="24" xmlns="http://www.w3.org/2000/svg" fill="none">

 <g>
  <title>Layer 1</title>
  <path id="svg_1" fill="#758CA3" d="m9.03363,23.363c-0.48132,0.2311 -1.05928,0.0433 -1.31285,-0.4266l-1.56272,-2.8958l-3.23697,-0.5914c-0.52523,-0.0959 -0.88243,-0.5876 -0.81139,-1.1167l0.43784,-3.2613l-2.27115,-2.3811c-0.36852,-0.3864 -0.36852,-0.9941 0,-1.3804l2.27115,-2.3811l-0.43784,-3.26129c-0.07104,-0.52917 0.28616,-1.02082 0.81139,-1.11677l3.23697,-0.59139l1.56272,-2.89579c0.25357,-0.46987 0.83153,-0.65766 1.31285,-0.42657l2.96637,1.42419l2.9664,-1.42419c0.4813,-0.23109 1.0593,-0.0433 1.3128,0.42657l1.5627,2.89579l3.237,0.59139c0.5252,0.09595 0.8824,0.5876 0.8114,1.11677l-0.4378,3.26129l2.2711,2.3811c0.3685,0.3863 0.3685,0.994 0,1.3804l-2.2711,2.3811l0.4378,3.2613c0.071,0.5291 -0.2862,1.0208 -0.8114,1.1167l-3.237,0.5914l-1.5627,2.8958c-0.2535,0.4699 -0.8315,0.6577 -1.3128,0.4266l-2.9664,-1.4242l-2.96637,1.4242z" clip-rule="evenodd" fill-rule="evenodd"/>
 </g>
</svg>