<?xml version="1.0" encoding="utf-8"?>

<!DOCTYPE svg PUBLIC "-//W3C//DTD SVG 1.1//EN" "http://www.w3.org/Graphics/SVG/1.1/DTD/svg11.dtd">
<!-- Uploaded to: SVG Repo, www.svgrepo.com, Generator: SVG Repo Mixer Tools -->
<svg height="800px" width="800px" version="1.1" id="_x32_" xmlns="http://www.w3.org/2000/svg" xmlns:xlink="http://www.w3.org/1999/xlink" 
	 viewBox="0 0 512 512"  xml:space="preserve">
<style type="text/css">
	.st0{fill:#000000;}
</style>
<g>
	<path class="st0" d="M483.338,435.827l-31.204-236.43c-5.141-31.826-32.612-55.217-64.855-55.217h-57.173
		c-29.617,0-33.833-14.237-33.833-30.883c0-17.046,4.86-23.169,16.658-24.804c20.899-2.569,37.101-20.361,37.101-41.958v-4.23
		C350.033,18.939,331.093,0,307.729,0H204.272c-23.365,0-42.304,18.939-42.304,42.304v4.23c0,21.597,16.201,39.388,37.1,41.958
		c11.789,1.635,16.66,7.758,16.66,24.804c0,16.646-4.217,30.883-33.834,30.883h-57.172c-32.244,0-59.714,23.391-64.856,55.217
		l-31.203,236.43c-3.071,19.01,2.355,38.411,14.833,53.066C55.973,503.557,74.267,512,93.513,512h324.974
		c19.245,0,37.531-8.443,50.018-23.108C480.984,474.238,486.408,454.837,483.338,435.827z"/>
</g>
</svg>